
    ffmpeg -i /Users/dengjiangzhou/Downloads/qie/0.mp3
    ffmpeg version 4.0.1 Copyright (c) 2000-2018 the FFmpeg developers
    built with Apple LLVM version 9.1.0 (clang-902.0.39.2)
    configuration: --prefix=/usr/local/Cellar/ffmpeg/4.0.1 --enable-shared --enable-pthreads --enable-version3 --enable-hardcoded-tables --enable-avresample --cc=clang --host-cflags= --host-ldflags= --enable-gpl --enable-libmp3lame --enable-libx264 --enable-libxvid --enable-opencl --enable-videotoolbox --disable-lzma
    libavutil      56. 14.100 / 56. 14.100
    libavcodec     58. 18.100 / 58. 18.100
    libavformat    58. 12.100 / 58. 12.100
    libavdevice    58.  3.100 / 58.  3.100
    libavfilter     7. 16.100 /  7. 16.100
    libavresample   4.  0.  0 /  4.  0.  0
    libswscale      5.  1.100 /  5.  1.100
    libswresample   3.  1.100 /  3.  1.100
    libpostproc    55.  1.100 / 55.  1.100
    [mp3 @ 0x7fa2d6005800] Estimating duration from bitrate, this may be inaccurate
    Input #0, mp3, from '/Users/dengjiangzhou/Downloads/qie/0.mp3':
    Metadata:
    artist          : 瑜伽音乐
    title           : 10 - 瑜伽放松休息术
    Duration: 00:05:00.41, start: 0.000000, bitrate: 128 kb/s
    Stream #0:0: Audio: mp3, 44100 Hz, stereo, fltp, 128 kb/s
    At least one output file must be specified
    dengjiangzhou@dengjiangzhou  ~/Desktop/ZTBest-ios   developer  ffepeg -i /Users/dengjiangzhou/Downloads/qie/10009.mp3
    zsh: command not found: ffepeg
    dengjiangzhou@dengjiangzhou  ~/Desktop/ZTBest-ios   developer  ffmpeg -i /Users/dengjiangzhou/Downloads/qie/10009.mp3 
    ffmpeg version 4.0.1 Copyright (c) 2000-2018 the FFmpeg developers
    built with Apple LLVM version 9.1.0 (clang-902.0.39.2)
    configuration: --prefix=/usr/local/Cellar/ffmpeg/4.0.1 --enable-shared --enable-pthreads --enable-version3 --enable-hardcoded-tables --enable-avresample --cc=clang --host-cflags= --host-ldflags= --enable-gpl --enable-libmp3lame --enable-libx264 --enable-libxvid --enable-opencl --enable-videotoolbox --disable-lzma
    libavutil      56. 14.100 / 56. 14.100
    libavcodec     58. 18.100 / 58. 18.100
    libavformat    58. 12.100 / 58. 12.100
    libavdevice    58.  3.100 / 58.  3.100
    libavfilter     7. 16.100 /  7. 16.100
    libavresample   4.  0.  0 /  4.  0.  0
    libswscale      5.  1.100 /  5.  1.100
    libswresample   3.  1.100 /  3.  1.100
    libpostproc    55.  1.100 / 55.  1.100
    Input #0, mov,mp4,m4a,3gp,3g2,mj2, from '/Users/dengjiangzhou/Downloads/qie/10009.mp3':
    Metadata:
    major_brand     : isom
    minor_version   : 512
    compatible_brands: isomiso2mp41
    encoder         : Lavf57.56.100
    Duration: 00:06:07.41, start: 0.000000, bitrate: 64 kb/s
    Stream #0:0(und): Audio: aac (LC) (mp4a / 0x6134706D), 44100 Hz, stereo, fltp, 61 kb/s (default)
    Metadata:
    handler_name    : SoundHandler
    At least one output file must be specified
    dengjiangzhou@dengjiangzhou  ~/Desktop/ZTBest-ios   developer  ffmpeg -i /Users/dengjiangzhou/Downloads/qie/10010.mp3                                                            1 ↵  34  13:47:47 
    ffmpeg version 4.0.1 Copyright (c) 2000-2018 the FFmpeg developers
    built with Apple LLVM version 9.1.0 (clang-902.0.39.2)
    configuration: --prefix=/usr/local/Cellar/ffmpeg/4.0.1 --enable-shared --enable-pthreads --enable-version3 --enable-hardcoded-tables --enable-avresample --cc=clang --host-cflags= --host-ldflags= --enable-gpl --enable-libmp3lame --enable-libx264 --enable-libxvid --enable-opencl --enable-videotoolbox --disable-lzma
    libavutil      56. 14.100 / 56. 14.100
    libavcodec     58. 18.100 / 58. 18.100
    libavformat    58. 12.100 / 58. 12.100
    libavdevice    58.  3.100 / 58.  3.100
    libavfilter     7. 16.100 /  7. 16.100
    libavresample   4.  0.  0 /  4.  0.  0
    libswscale      5.  1.100 /  5.  1.100
    libswresample   3.  1.100 /  3.  1.100
    libpostproc    55.  1.100 / 55.  1.100
    Input #0, mov,mp4,m4a,3gp,3g2,mj2, from '/Users/dengjiangzhou/Downloads/qie/10010.mp3':
    Metadata:
    major_brand     : isom
    minor_version   : 512
    compatible_brands: isomiso2mp41
    encoder         : Lavf57.56.100
    Duration: 00:16:55.48, start: 0.000000, bitrate: 64 kb/s
    Stream #0:0(und): Audio: aac (LC) (mp4a / 0x6134706D), 44100 Hz, stereo, fltp, 61 kb/s (default)
    Metadata:
    handler_name    : SoundHandler
    At least one output file must be specified
    dengjiangzhou@dengjiangzhou  ~/Desktop/ZTBest-ios   developer                                                                                                                    1 ↵  35  13:49:19 
